<svg xmlns="http://www.w3.org/2000/svg" width="216.457" height="75.108" viewBox="0 0 216.5 75.1">
  <path d="M215.7 63.8c0 6.5-4.8 10.6-11.3 10.6H12.6c-6.6 0-12-5.3-12-12V12.7C1 6 6 .8 12.7.8h191.8c6.5 0 11.3 5.2 11.3 11.8v51.2z"/>
  <path fill="#FFF" d="M204.4 75H12.6C5.6 75 0 69.6 0 62.6v-50C0 5.6 5.6 0 12.6 0h191.8c6.8 0 12 5.5 12 12.6v51.2c0 6.8-4.8 11.3-12 11.3zM12.6 1.6c-6 0-11 5-11 11v50c0 6 5 11 11 11h191.8c6.3 0 10.6-3.8 10.6-9.7V12.6c0-6.2-4.7-11-10.6-11H12.6z"/>
  <g fill="#FFF">
    <path d="M147.7 53.6L146 55l-1 .7c-1.2.5-2.3.7-3.3.7s-2.8 0-4.5-1.4c-2.4-1.6-3.5-4.5-3.5-7 0-5.3 4.3-8 7.7-8 1.3 0 2.5.4 3.5 1 1.6 1.2 2 2.6 2.3 3.4l-8 3.2-2.5.2c.8 4.3 3.7 6.8 7 6.8 1.5 0 2.7-.5 3.8-1 0 0 .2-.2 0 0zM143 45c.5-.2.8-.4.8-1 0-1.2-1.5-2.8-3.3-2.8-1.3 0-4 1-4 4.7l.2 1.7L143 45z"/>
    <path d="M131 53.3c0 1.3.3 1.5 1.4 1.6h1.7l-1 .8h-6c.7-1 1-1 1-1.7v-.7l-.2-20h-2.6l2.5-1.3h5c-1.2.6-1.5 1-1.6 2.2v19zm-9.2-11.5c.8.6 2.4 2 2.4 4.5s-1.4 3.7-2.8 4.8c-.4.6-1 1-1 1.8 0 .7.6 1 1 1.4l1.2 1c1.4 1.2 2.8 2.4 2.8 4.7 0 3-3 6.3-9 6.3-4.8 0-7-2.4-7-4.8 0-1.3.5-3 2.5-4.2 2-1.2 4.8-1.4 6.3-1.5-.5-.6-1-1.3-1-2.3 0-.6.2-1 .3-1.3h-1c-3.6 0-5.7-2.6-5.7-5.3 0-1.6.7-3.3 2-4.6 2-1.6 4.3-1.8 6-1.8h7l-2 1.2h-2.2zm-2.3 15h-.8c-.3 0-2.2 0-3.6.5-.6.2-2.8 1-2.8 3.4s2.4 4.2 6 4.2c3.2 0 5-1.7 5-3.8 0-1.7-1.2-2.6-3.7-4.4zm1-6.4c.7-.8.8-2 .8-2.5 0-2.5-1.5-6.3-4.3-6.3-1 0-1.8.4-2.3 1-.6.8-.8 1.7-.8 2.6 0 2.3 1.2 6 4 6 1 0 2-.4 2.4-1zM101 56.3c-5.4 0-8.3-4.2-8.3-8 0-4.4 3.6-8.2 8.7-8.2 5 0 8 4 8 8s-3 8.3-8.5 8.3zm4-2.7c1-1 1.2-2.5 1.2-3.8 0-3-1.5-8.6-5.6-8.6-1.2 0-2.3.4-3 1C96 43.6 96 45 96 46.5c0 3.4 1.6 9 5.7 9 1.3 0 2.7-.8 3.4-1.8zm-22 2.7c-5.4 0-8.3-4.2-8.3-8 0-4.4 3.6-8.2 8.8-8.2 5 0 8 4 8 8s-3 8.3-8.5 8.3zm4.2-2.7c.8-1 1-2.5 1-3.8 0-3-1.4-8.6-5.6-8.6-1 0-2.2.4-3 1-1.4 1.3-1.6 2.8-1.6 4.2 0 3.4 1.7 9 5.7 9 1.4 0 2.7-.8 3.5-1.8zM72.6 55L68 56.3c-1.8.2-3.4.5-5.2.5-8.7 0-12-6.4-12-11.5 0-6 4.7-11.8 12.8-11.8 1.7 0 3.3.3 4.8.7 2.4.7 3.5 1.6 4.2 2L70 38.5l-1.2.3.8-1.3c-1-1-3-3-6.7-3-5 0-9 3.8-9 9.4 0 5.8 4.4 11.4 11.3 11.4 2 0 3-.4 4-.8v-5l-4.8.2 2.6-1.4h7l-.8.8c-.3.2-.3.3-.4.5V55zM157.4 53.7v8.6h-1.7V40.5h1.7V43c1-1.7 3-3 5.5-3 4 0 7 3.3 7 8.3 0 5-3 8.4-7 8.4-2.3 0-4.3-1.2-5.6-3zm10.7-5.3c0-4-2-6.8-5.4-6.8-2.2 0-4.3 1.7-5.2 3.2v7c1 1.5 3 3.3 5.2 3.3 3.5 0 5.5-2.8 5.5-6.6zm4.2 7.9v-22h1.7v22h-1.7zm20.9 4.7l1.3.2c1 0 1.8-.5 2.5-2l1.2-2.8-6.7-16h2l5.7 14 5.7-14h1.8L198.6 60c-.8 2-2.2 3-4 3-.6 0-1.3-.2-1.7-.3l.2-1.6zm-5-4.8c0-.5-.2-1-.3-1.4l-.2-1.2c-.6.8-1.4 1.5-2.4 2-1 .7-2 1-3.5 1-1.8 0-3-.5-4-1.3s-1.4-2-1.4-3.4.7-2.6 2-3.5c1.4-1 3-1.3 5.2-1.3h4v-2c0-1-.4-2-1-2.7-1-.6-2-1-3.4-1-1.3 0-2.3.3-3 1-1 .5-1.3 1.3-1.3 2h-1.7c0-1 .5-2.2 1.7-3 1-1 2.6-1.4 4.5-1.4 2 0 3.4.5 4.5 1.4 1 1 1.7 2.2 1.7 3.8v9.5l.4 1.5h-1.8zm-6-1.2c1.4 0 2.4-.3 3.5-1 1-.6 1.7-1.4 2-2.4v-3h-4c-1.4 0-2.7.3-3.7 1-1 .6-1.5 1.4-1.5 2.4s.4 1.6 1 2.2c.6.5 1.5.8 2.6.8z"/>
  </g>
  <path fill="none" d="M28.5 47.5L34 42l-5.5 5.5L11 30l17.5 17.5L11 65l17.5-17.5L34 53"/>
  <linearGradient id="a" x1="879.429" x2="856.352" y1="495.527" y2="509.97" gradientUnits="userSpaceOnUse" gradientTransform="matrix(0.7071 0.7071 0.7071 -0.7071 -947.4174 -225.4017)">
    <stop offset="0" stop-color="#D6FFA1"/>
    <stop offset=".326" stop-color="#93E2A7"/>
    <stop offset="1" stop-color="#00A3B5"/>
  </linearGradient>
  <path fill="url(#a)" d="M34 42L12.6 30.3c-.6-.4-1-.5-1.6-.3l17.5 17.5L34 42z"/>
  <linearGradient id="b" x1="866.01" x2="895.934" y1="507.865" y2="500.043" gradientUnits="userSpaceOnUse" gradientTransform="matrix(0.7071 0.7071 0.7071 -0.7071 -947.4174 -225.4017)">
    <stop offset="0" stop-color="#FF177B"/>
    <stop offset=".672" stop-color="#FFA976"/>
    <stop offset="1" stop-color="#FFEC73"/>
  </linearGradient>
  <path fill="url(#b)" d="M34 53l7.3-4c1.5-1 1.5-2.2 0-3L34 42l-5.5 5.5L34 53z"/>
  <linearGradient id="c" x1="882.713" x2="850.268" y1="484.574" y2="503.663" gradientUnits="userSpaceOnUse" gradientTransform="matrix(0.7071 0.7071 0.7071 -0.7071 -947.4174 -225.4017)">
    <stop offset="0" stop-color="#63FFD4"/>
    <stop offset=".485" stop-color="#32A0BA"/>
    <stop offset=".835" stop-color="#1262A9"/>
    <stop offset="1" stop-color="#064AA2"/>
  </linearGradient>
  <path fill="url(#c)" d="M11 30c-.6.2-1 .8-1 1.8V63c0 1 .4 1.8 1 2l17.5-17.5L11 30z"/>
  <linearGradient id="d" x1="894.492" x2="874.515" y1="499.728" y2="473.41" gradientUnits="userSpaceOnUse" gradientTransform="matrix(0.7071 0.7071 0.7071 -0.7071 -947.4174 -225.4017)">
    <stop offset="0" stop-color="#FF4521"/>
    <stop offset=".341" stop-color="#D43E65"/>
    <stop offset=".793" stop-color="#9F36B9"/>
    <stop offset="1" stop-color="#8A33DB"/>
  </linearGradient>
  <path fill="url(#d)" d="M11 65c.4 0 1 0 1.6-.3L34 53l-5.5-5.5L11 65z"/>
  <path fill="#FFF" d="M50.7 16.5c0-3.4 2.5-5.5 5.6-5.5 2 0 3.5 1 4.3 2.2L59 14c-.5-.8-1.5-1.4-2.7-1.4-2 0-3.6 1.6-3.6 4 0 2 1.5 3.7 3.6 3.7 1 0 2-.5 2.6-1v-1.6h-3.3V16h5v4c-1 1.2-2.5 2-4.4 2-3 0-5.6-2.2-5.6-5.5zM63 21.8V11h7.4v2H65v2.7h5.3v1.7H65v3h5.4V22H63zm12.5 0v-9h-3.2V11h8.4v2h-3.3v9h-2zm11.7 0V11H89v11h-1.8zm7.1 0v-9H91V11h8.4v2H96v9h-1.7zm11.1-5.3c0-3.2 2.3-5.5 5.5-5.5 3 0 5.3 2.3 5.3 5.5S114 22 111 22c-3.3 0-5.6-2.3-5.6-5.5zm9 0c0-2.2-1.4-4-3.5-4-2.3 0-3.7 1.8-3.7 4s1.4 3.8 3.6 3.8c2 0 3.4-1.6 3.4-3.8zm11.6 5.3l-5.6-7.6v7.6h-2V11h2l5.5 7.5V11h1.8v11h-2z"/>
</svg>
