<svg xmlns="http://www.w3.org/2000/svg" viewBox="0 0 216.457 75.108">
  <defs>
    <linearGradient id="a" x1="879.429" x2="856.352" y1="495.527" y2="509.97" gradientUnits="userSpaceOnUse" gradientTransform="matrix(0.7071 0.7071 0.7071 -0.7071 -947.4174 -225.4017)">
      <stop offset="0" stop-color="#D6FFA1"/>
      <stop offset=".326" stop-color="#93E2A7"/>
      <stop offset="1" stop-color="#00A3B5"/>
    </linearGradient>
    <linearGradient id="b" x1="866.01" x2="895.934" y1="507.865" y2="500.043" gradientUnits="userSpaceOnUse" gradientTransform="matrix(0.7071 0.7071 0.7071 -0.7071 -947.4174 -225.4017)">
      <stop offset="0" stop-color="#FF177B"/>
      <stop offset=".672" stop-color="#FFA976"/>
      <stop offset="1" stop-color="#FFEC73"/>
    </linearGradient>
    <linearGradient id="c" x1="882.713" x2="850.268" y1="484.574" y2="503.663" gradientUnits="userSpaceOnUse" gradientTransform="matrix(0.7071 0.7071 0.7071 -0.7071 -947.4174 -225.4017)">
      <stop offset="0" stop-color="#63FFD4"/>
      <stop offset=".485" stop-color="#32A0BA"/>
      <stop offset=".835" stop-color="#1262A9"/>
      <stop offset="1" stop-color="#064AA2"/>
    </linearGradient>
    <linearGradient id="d" x1="894.492" x2="874.515" y1="499.728" y2="473.41" gradientUnits="userSpaceOnUse" gradientTransform="matrix(0.7071 0.7071 0.7071 -0.7071 -947.4174 -225.4017)">
      <stop offset="0" stop-color="#FF4521"/>
      <stop offset=".341" stop-color="#D43E65"/>
      <stop offset=".793" stop-color="#9F36B9"/>
      <stop offset="1" stop-color="#8A33DB"/>
    </linearGradient>
  </defs>
  <path d="M215.707 63.768c0 6.53-4.797 10.59-11.322 10.59H12.57C6.044 74.36.75 69.062.75 62.532V12.575C.75 6.045 6.043.75 12.57.75h191.814c6.525 0 11.322 5.295 11.322 11.824v51.194z"/>
  <path fill="#FFF" d="M204.385 75.108H12.57C5.64 75.108 0 69.466 0 62.53V12.574C0 5.64 5.64 0 12.57 0h191.814c6.77 0 12.072 5.523 12.072 12.574v51.194c0 6.783-4.85 11.34-12.07 11.34zM12.57 1.5C6.468 1.5 1.5 6.468 1.5 12.574V62.53c0 6.108 4.967 11.078 11.07 11.078h191.814c6.324 0 10.572-3.955 10.572-9.84V12.573c0-6.21-4.645-11.074-10.572-11.074H12.57z"/>
  <g fill="#FFF">
    <path d="M147.652 53.585l-1.615 1.52c-.37.206-.742.444-1.113.613-1.12.51-2.26.638-3.273.638-1.076 0-2.766-.07-4.49-1.316-2.394-1.688-3.44-4.588-3.44-7.114 0-5.23 4.26-7.798 7.73-7.798 1.216 0 2.464.304 3.478.945 1.686 1.113 2.12 2.562 2.363 3.34l-7.933 3.205-2.598.2c.84 4.29 3.74 6.785 6.95 6.785 1.6 0 2.79-.52 3.88-1.062 0 .004.218-.11.063.046zm-4.787-8.533c.645-.234.98-.438.98-.906 0-1.348-1.524-2.904-3.345-2.904-1.35 0-3.88 1.05-3.88 4.695 0 .57.067 1.176.103 1.78l6.142-2.665z"/>
    <path d="M131.064 53.323c0 1.312.234 1.516 1.344 1.617.578.068 1.152.1 1.725.166l-1.248.743h-5.947c.78-1.014.914-1.114.914-1.788v-.753l-.014-20.064h-2.625l2.527-1.218h4.824c-1.045.604-1.357.974-1.492 2.154l-.008 19.14z"/>
    <path d="M121.842 41.784c.773.637 2.393 1.988 2.393 4.553 0 2.5-1.41 3.677-2.83 4.792-.438.436-.945.913-.945 1.65 0 .745.51 1.15.877 1.452l1.22.94c1.48 1.25 2.83 2.397 2.83 4.728 0 3.177-3.07 6.376-8.876 6.376-4.887 0-7.25-2.328-7.25-4.824 0-1.217.603-2.938 2.6-4.115 2.092-1.28 4.93-1.45 6.444-1.55-.473-.612-1.014-1.253-1.014-2.3 0-.57.17-.912.337-1.314-.37.035-.742.07-1.08.07-3.58 0-5.602-2.67-5.602-5.3 0-1.554.707-3.274 2.16-4.522 1.926-1.582 4.22-1.855 6.042-1.855h6.955l-2.162 1.22h-2.098zm-2.39 14.98c-.278-.035-.444-.035-.778-.035-.305 0-2.13.064-3.54.54-.748.27-2.907 1.08-2.907 3.477 0 2.392 2.33 4.115 5.94 4.115 3.237 0 4.958-1.553 4.958-3.644-.002-1.723-1.115-2.63-3.674-4.455zm.968-6.41c.78-.778.848-1.855.848-2.467 0-2.427-1.445-6.207-4.252-6.207-.875 0-1.823.438-2.36 1.118-.57.703-.742 1.615-.742 2.492 0 2.26 1.317 6.008 4.217 6.008.848 0 1.758-.41 2.29-.945zm-19.5 5.932c-5.365 0-8.235-4.178-8.235-7.96 0-4.417 3.608-8.198 8.74-8.198 4.96 0 8.068 3.884 8.068 7.962 0 3.98-3.07 8.196-8.574 8.196zm4.22-2.73c.815-1.08 1.013-2.427 1.013-3.74 0-2.973-1.416-8.64-5.6-8.64-1.114 0-2.235.435-3.043 1.145-1.318 1.183-1.553 2.666-1.553 4.12 0 3.335 1.647 8.835 5.737 8.835 1.32 0 2.668-.64 3.445-1.717zm-22.18 2.73c-5.365 0-8.23-4.178-8.23-7.96 0-4.417 3.61-8.198 8.74-8.198 4.957 0 8.06 3.884 8.06 7.962 0 3.98-3.066 8.196-8.57 8.196zm4.22-2.73c.81-1.08 1.013-2.427 1.013-3.74 0-2.973-1.42-8.64-5.6-8.64-1.118 0-2.227.435-3.037 1.145-1.32 1.183-1.554 2.666-1.554 4.12 0 3.335 1.654 8.835 5.737 8.835 1.316 0 2.66-.64 3.44-1.717zm-14.595 1.56L68.06 56.15c-1.832.29-3.478.544-5.22.544-8.728 0-12.052-6.424-12.052-11.45 0-6.14 4.71-11.83 12.778-11.83 1.707 0 3.35.25 4.846.657 2.37.67 3.48 1.49 4.173 1.97l-2.628 2.497-1.108.248.79-1.26c-1.07-1.045-3.04-2.974-6.77-2.974-4.993 0-8.76 3.795-8.76 9.334 0 5.95 4.3 11.545 11.195 11.545 2.026 0 3.07-.407 4.016-.788v-5.1l-4.775.258 2.532-1.36h6.703l-.818.79c-.222.187-.25.25-.313.503-.035.29-.065 1.205-.065 1.527v3.86zM157.38 53.73v8.596h-1.708V40.452h1.707v2.49c1.11-1.608 3.14-2.886 5.502-2.886 4.232 0 7.084 3.21 7.084 8.294 0 5.05-2.852 8.327-7.084 8.327-2.23.002-4.223-1.147-5.504-2.948zm10.753-5.378c0-3.83-1.998-6.753-5.54-6.753-2.198 0-4.3 1.727-5.214 3.233v7c.912 1.51 3.014 3.302 5.213 3.302 3.54 0 5.54-2.948 5.54-6.784zm4.164 7.932v-21.87h1.707v21.87h-1.707zm20.86 4.626c.364.16.987.263 1.384.263 1.047 0 1.773-.428 2.426-1.936l1.246-2.82-6.724-15.965h1.902l5.77 13.834 5.713-13.834h1.93l-8.2 19.314c-.85 1.99-2.188 2.947-4.027 2.947-.553 0-1.28-.1-1.707-.23l.29-1.574zm-4.985-4.673c-.115-.55-.2-1.03-.264-1.437-.053-.403-.082-.815-.082-1.233-.586.858-1.414 1.573-2.475 2.137-1.057.566-2.062.846-3.445.846-1.662 0-2.953-.41-3.875-1.24-.92-.828-1.382-1.95-1.382-3.37s.67-2.573 2.004-3.454c1.334-.885 3.06-1.324 5.19-1.324h3.983v-1.967c0-1.134-.39-2.023-1.158-2.67-.773-.646-1.86-.975-3.268-.975-1.29 0-2.334.3-3.13.88-.786.595-1.185 1.33-1.185 2.218h-1.746l-.038-.084c-.062-1.195.484-2.246 1.648-3.15 1.157-.905 2.675-1.36 4.542-1.36 1.86 0 3.367.448 4.502 1.342 1.135.886 1.703 2.164 1.703 3.837v7.81c0 .562.025 1.104.098 1.632.072.53.188 1.057.34 1.566h-1.965v-.002zm-6.057-1.244c1.45 0 2.49-.323 3.557-.965 1.06-.638 1.777-1.47 2.156-2.475v-3.04h-4c-1.53 0-2.793.338-3.79 1.02-.995.682-1.5 1.505-1.5 2.462 0 .902.317 1.625.956 2.172.637.553 1.508.826 2.62.826z"/>
  </g>
  <path fill="url(#a)" d="M33.972 41.983l-21.336-11.73c-.604-.332-1.163-.41-1.615-.27L28.5 47.46l5.472-5.477z"/>
  <path fill="url(#b)" d="M34 52.963l7.284-4.005c1.477-.815 1.477-2.143 0-2.954l-7.31-4.02-5.477 5.476L34 52.963z"/>
  <path fill="url(#c)" d="M11.02 29.985c-.65.203-1.07.86-1.07 1.854l.005 31.28c0 .983.407 1.63 1.038 1.848L28.5 47.462 11.02 29.985z"/>
  <path fill="url(#d)" d="M10.993 64.97c.454.152 1.024.08 1.643-.26L34 52.964l-5.5-5.5L10.992 64.97z"/>
  <path fill="#FFF" d="M50.746 16.473c0-3.36 2.497-5.522 5.603-5.522 2.08 0 3.44.994 4.29 2.21l-1.523.88c-.576-.8-1.585-1.423-2.77-1.423-2.112 0-3.682 1.6-3.682 3.857 0 2.225 1.57 3.857 3.682 3.857 1.09 0 2.05-.495 2.53-.96v-1.65h-3.202v-1.646h5.058v3.985c-1.04 1.17-2.545 1.952-4.386 1.952-3.105 0-5.602-2.19-5.602-5.537zm12.304 5.33V11.126h7.315v1.65h-5.442v2.752h5.33v1.648h-5.33v2.978h5.442v1.648H63.05zm12.498 0v-9.027h-3.233v-1.65h8.34v1.65H77.42v9.027h-1.874zm11.615 0V11.126h1.872v10.677h-1.872zm7.087 0v-9.027h-3.23v-1.65h8.34v1.65h-3.233v9.027H94.25zm11.152-5.33c0-3.186 2.257-5.522 5.458-5.522 3.186 0 5.46 2.34 5.46 5.524s-2.275 5.522-5.46 5.522c-3.2 0-5.458-2.337-5.458-5.522zm8.996 0c0-2.21-1.393-3.857-3.537-3.857-2.16 0-3.536 1.648-3.536 3.857 0 2.192 1.377 3.857 3.538 3.857 2.145 0 3.538-1.665 3.538-3.857zm11.552 5.33l-5.57-7.635v7.635h-1.872V11.126h1.92l5.46 7.396v-7.396h1.872v10.677h-1.81z"/>
</svg>
