<svg xmlns="http://www.w3.org/2000/svg" width="70" height="26">
  <path fill="#535353" fill-rule="evenodd" d="M65.8 10c0-.8.6-1.5 1.4-1.5.7 0 1.3.7 1.3 1.4s-.6 1.3-1.3 1.3c-.8 0-1.4-.6-1.4-1.4zm1.4 1c.5 0 1-.5 1-1 0-.7-.5-1-1-1-.6 0-1 .3-1 1 0 .5.4 1 1 1zm-.2-.5h-.3V9.3h.8a.4.4 0 0 1 0 .4.3.3 0 0 1 0 .3l.2.5h-.3l-.2-.4H67v.5zm0-.7h.3v-.2H67v.2zm-20-9L46.8 3c-.7-.4-1.3-.5-2-.5-1.6 0-2.7 1.7-2.7 4 0 1.7.8 2.7 2 2.7.6 0 1.2-.2 2-.6l-.5 2.5c-.8.3-1.3.4-2 .4-2.3 0-3.8-1.8-3.8-4.7 0-3.8 2-6.5 5-6.5h1l1 .3.4.2zM40 2.2a1.2 1.2 0 0 0-.2 0c-.7 0-1 .4-1.8 1.4l.2-1.3h-2l-1.3 8.8H37c.6-5.4.8-6.3 2-6.3.3-1.2.5-2 1-2.7h-.2zm-13 8.8c-.7.3-1.2.4-1.7.4-1 0-1.6-.7-1.6-2v-.7l.2-1v-.6l1-6h2.2l-.2 1.4h1l-.2 2h-1l-.7 3.8v.4c0 .4.2.6.7.6a1.7 1.7 0 0 0 .6 0l-.3 2zM18 5.3c0 1 .5 2 1.7 2.4 1 .5 1 .6 1 1 0 .6-.4.8-1.2.8-.7 0-1.3 0-2-.3l-.3 2 .5.2H19.5c2.3 0 3.4-.8 3.4-2.8 0-1.2-.6-2-1.7-2.4-1-.5-1-.6-1-1 0-.5.4-.7 1-.7H23l.2-2a13.6 13.6 0 0 0-2 0c-2.3 0-3.2 1.3-3.2 3zm46.6 6h-2v-1c-.6.8-1.2 1-2 1C59 11.3 58 10 58 7.8c0-3 1.6-5.4 3.5-5.4 1 0 1.5.3 2 1.2l.6-3h2.2L64.6 11zm-3.3-2c1 0 1.8-1.3 1.8-3 0-1.2-.3-1.8-1-1.8-1 0-1.8 1.3-1.8 3 0 1 .4 1.7 1 1.7zM33.6 11a7.2 7.2 0 0 1-2.2.4c-2.5 0-3.7-1.4-3.7-4 0-3 1.6-5.2 3.8-5.2 1.8 0 3 1.2 3 3.2 0 .6 0 1.3-.3 2.2h-4.4a1.8 1.8 0 0 0 0 .2c0 1 .6 1.6 2 1.6.7 0 1.4-.2 2.2-.6l-.4 2.2zm-1.2-5.2v-.5c0-.7-.4-1-1-1-.7 0-1.2.4-1.4 1.5h2.4zM9.2 11.2H7L8.3 3 5.5 11H4L3.8 3 2.5 11h-2L2 .4h3.3V7L7.6.5H11zm5.7-4a3.6 3.6 0 0 0-.6 0c-1.3 0-2 .5-2 1.4 0 .5.4 1 1 1 .8 0 1.4-1 1.5-2.3zm1.5 4h-1.8v-1c-.6.8-1.3 1.2-2.3 1.2-1.2 0-2-1-2-2.4 0-2.2 1.4-3.4 3.8-3.4h1V5c0-.5-.4-.7-1.4-.7-.6 0-1.3 0-1.8.2h-.5l.3-1.8c1-.4 1.8-.5 2.6-.5 2 0 3 1 3 2.6 0 .4 0 .7-.3 1.7l-.3 3v.7l-.2.5v.5zm34.4-4a3.6 3.6 0 0 0-.6 0c-1.3 0-2 .5-2 1.4 0 .5.4 1 1 1 .8 0 1.4-1 1.5-2.3zm1.5 4h-1.8v-1c-.6.8-1.3 1.2-2.3 1.2-1.2 0-2-1-2-2.4 0-2.2 1.4-3.4 4-3.4h.7l.2-.5c0-.5-.4-.7-1.4-.7-.6 0-1.3 0-1.8.2h-.5l.3-1.8c1-.4 1.8-.5 2.6-.5 2 0 3 1 3 2.6 0 .4 0 .7-.3 1.7l-.3 3v.7l-.2.5v.5zm6-9c-.8 0-1.2.5-2 1.5l.3-1.3h-2l-1.4 8.8h2.2c.8-5.4 1-6.3 2-6.3h.2c.2-1.2.5-2 1-2.7h-.2zm-9 17.5c0 2-.7 3.2-1.7 3.2-.7 0-1-1-1-2 0-1.4.5-3 1.5-3 .8 0 1 .8 1 1.7zm2 0c0-2-1-4-3-4-2.4 0-4 2.2-4 5.3 0 2.2 1 4 3.2 4s4-1.6 4-5.2zm-6.3-5.4l-.3 2.3c-.8-.4-1.4-.6-2-.6-1.5 0-2.5 1.7-2.5 4 0 1.7.7 2.7 2 2.7.4 0 1 0 1.6-.5l-.2 2.4c-.8.3-1.3.4-2 .4-2 0-3.4-1.8-3.4-4.7 0-4 2-6.6 4.6-6.6h1l.7.4.5.3zM31.7 16a.8.8 0 0 0-.2 0c-.7 0-1 .2-1.7 1.3L30 16h-2l-1 8.8h2c.6-5.4.8-6.4 1.8-6.4h.2c0-1 .4-1.8.7-2.5zm26.7 8.7h-2l.2-1c-.6.8-1.2 1-2 1-1.4 0-2.4-1.4-2.4-3.6 0-2.8 1.5-5.3 3.4-5.3.7 0 1.4.4 2 1.2l.4-3.2h2l-1.6 11zm-3-2c1 0 1.6-1.3 1.6-3 0-1.2-.4-1.8-1-1.8-1 0-1.7 1-1.7 3 0 1 .4 1.6 1 1.6zm-43 2a6.3 6.3 0 0 1-2 .3C8 25 7 23.6 7 21c0-3 1.4-5.2 3.5-5.2 1.6 0 2.7 1.2 2.7 3.2 0 .6 0 1.3-.2 2.2H9a2.7 2.7 0 0 0 0 .2c0 1 .5 1.6 1.7 1.6.7 0 1.4-.2 2-.6l-.2 2.2zm-1-5.3V19c0-.8-.4-1.2-1-1.2-.7 0-1.2.6-1.3 1.6h2.3zm25.4 5.2a6.3 6.3 0 0 1-2 .4c-2.4 0-3.6-1.4-3.6-4 0-3 1.6-5.2 3.6-5.2 1.7 0 2.8 1.2 2.8 3.2 0 .6 0 1.3-.3 2.2h-4v.2c0 1 .5 1.6 1.7 1.6.8 0 1.4-.2 2.2-.6l-.4 2.2zm-1-5.2V19c0-.8-.5-1.2-1-1.2-.7 0-1.2.6-1.4 1.6h2.3zm29.6 5.2a6.3 6.3 0 0 1-2 .4c-2.4 0-3.6-1.4-3.6-4 0-3 1.6-5.2 3.6-5.2 1.7 0 2.8 1.2 2.8 3.2 0 .6 0 1.3-.3 2.2h-4.2a2.3 2.3 0 0 0 0 .2c0 1 .6 1.6 1.8 1.6.8 0 1.4-.2 2.2-.6l-.4 2.2zm-1-5.2V19c0-.8-.5-1.2-1-1.2-.7 0-1.2.6-1.4 1.6h2.3zm-58-3c-.4-.4-1-.6-1.7-.6-.8 0-1.5 0-1.5 1 0 1.6 3 1 3 4.4 0 3-2 3.8-3.8 3.8-.8 0-1.7-.3-2.4-.6l.5-2.2c.4.4 1.2.6 2 .6.6 0 1.6-.2 1.6-1.3 0-1.8-3-1-3-4.2 0-3 1.8-3.7 3.5-3.7 1 0 2 0 2.4.5l-.6 2.3zm12 8.2c-.4.2-1 .4-1.8.4-1.8 0-3-1.8-3-4 0-3 1.7-5.2 4-5.2.6 0 1.4.2 2 .6l-.4 2c-.5-.2-1-.4-1.4-.4-1 0-2 1-2 3 0 1 .7 1.7 1.6 1.7.5 0 1 0 1.4-.3l-.3 2.2zm7.7-2.2a35 35 0 0 0 0 2.3h-2v-1.4c-.6 1-1.2 1.6-2.3 1.6-1.3 0-2-1.4-2-3l.2-2 .5-4h2.2l-.6 4v1.4c0 .5.2 1 .8 1 1 0 1.4-1 1.5-2.4l.7-4h2l-1 6.4zm41.5 2.2H67V23h-.3V23H68v.3h-.5zm2.2 0h-.3V23l-.3 1.6h-.3l-.3-1.5v1.6H68v-1.8h.6l.3 1.4.2-1.4h.5z"/>
</svg>
