<svg xmlns="http://www.w3.org/2000/svg" width="81" height="20">
  <g fill-rule="evenodd">
    <path fill="#27356A" d="M30.265 4.483h-4.48a.624.624 0 0 0-.615.528l-1.81 11.56a.375.375 0 0 0 .37.433h2.138a.624.624 0 0 0 .615-.53l.488-3.116a.623.623 0 0 1 .616-.53h1.417c2.95 0 4.654-1.436 5.098-4.284.2-1.245.01-2.224-.57-2.91-.636-.752-1.766-1.15-3.264-1.15zm.516 4.22c-.244 1.62-1.472 1.62-2.66 1.62h-.675L27.92 7.3a.374.374 0 0 1 .368-.316h.31c.81 0 1.572 0 1.966.464.235.277.307.688.217 1.256zm12.873-.05h-2.145a.374.374 0 0 0-.37.316l-.094.603-.15-.22c-.464-.677-1.5-.904-2.533-.904-2.37 0-4.393 1.806-4.788 4.34-.204 1.264.087 2.473.8 3.316.653.775 1.588 1.098 2.7 1.098 1.91 0 2.97-1.236 2.97-1.236l-.096.6c-.036.23.14.435.368.435h1.932a.624.624 0 0 0 .615-.53l1.16-7.387a.373.373 0 0 0-.367-.434zm-2.99 4.2c-.207 1.233-1.18 2.06-2.42 2.06-.622 0-1.12-.2-1.44-.58-.317-.38-.437-.918-.337-1.517.194-1.223 1.183-2.078 2.404-2.078.61 0 1.104.204 1.43.588.327.388.457.93.363 1.527zm14.413-4.2H52.92a.623.623 0 0 0-.515.274l-2.972 4.407-1.26-4.235a.625.625 0 0 0-.598-.448h-2.118a.376.376 0 0 0-.354.497l2.374 7.01-2.232 3.17a.376.376 0 0 0 .305.595h2.152a.62.62 0 0 0 .512-.27l7.168-10.413a.376.376 0 0 0-.306-.59"/>
    <path fill="#288FC3" d="M62.212 4.483h-4.48a.624.624 0 0 0-.614.528l-1.81 11.56a.374.374 0 0 0 .367.433h2.298a.436.436 0 0 0 .43-.37l.514-3.276a.623.623 0 0 1 .614-.53h1.42c2.95 0 4.652-1.436 5.097-4.284.2-1.245.008-2.224-.57-2.91-.638-.752-1.766-1.15-3.265-1.15zm.517 4.22c-.246 1.62-1.474 1.62-2.66 1.62h-.677l.475-3.022a.373.373 0 0 1 .368-.316h.31c.808 0 1.572 0 1.966.464.235.277.306.688.217 1.256zm12.87-.05h-2.144a.372.372 0 0 0-.368.316l-.095.603-.15-.22c-.465-.677-1.5-.904-2.533-.904-2.37 0-4.394 1.806-4.788 4.34-.204 1.264.086 2.473.798 3.316.655.775 1.59 1.098 2.702 1.098 1.91 0 2.97-1.236 2.97-1.236l-.097.6c-.036.23.14.435.37.435h1.93a.624.624 0 0 0 .615-.53l1.16-7.387a.376.376 0 0 0-.37-.434zm-2.99 4.2c-.205 1.233-1.18 2.06-2.42 2.06-.62 0-1.12-.2-1.44-.58-.317-.38-.436-.918-.337-1.517.195-1.223 1.183-2.078 2.404-2.078.61 0 1.104.204 1.43.588.328.388.458.93.363 1.527zM78.128 4.8L76.29 16.57a.374.374 0 0 0 .368.433h1.848a.622.622 0 0 0 .615-.53l1.814-11.557a.375.375 0 0 0-.368-.434h-2.07a.375.375 0 0 0-.368.318"/>
    <path fill="#27356A" d="M4.76 19.25l.34-2.19-.762-.018H.695L3.227.886a.214.214 0 0 1 .07-.126.206.206 0 0 1 .135-.05h6.144c2.04 0 3.446.426 4.18 1.27.346.395.565.808.67 1.263.113.477.114 1.047.006 1.743l-.008.05v.446l.344.196c.29.155.52.333.698.535.295.34.485.768.566 1.278.083.525.055 1.148-.08 1.854-.158.812-.412 1.52-.755 2.098a4.3 4.3 0 0 1-1.195 1.318 4.834 4.834 0 0 1-1.61.73 7.986 7.986 0 0 1-2.012.235h-.478a1.444 1.444 0 0 0-1.422 1.22l-.036.2-.605 3.858-.03.14c-.006.046-.02.068-.037.084a.1.1 0 0 1-.063.023H4.76"/>
    <path fill="#288FC3" d="M15.094 5.088c-.018.118-.04.238-.062.362-.81 4.186-3.582 5.632-7.122 5.632H6.108a.877.877 0 0 0-.865.746l-1.184 7.56a.463.463 0 0 0 .454.536H7.71a.77.77 0 0 0 .76-.653l.03-.162.603-3.844.04-.21a.77.77 0 0 1 .76-.655h.477c3.097 0 5.52-1.266 6.23-4.928.296-1.53.143-2.807-.64-3.705a3.056 3.056 0 0 0-.876-.68"/>
    <path fill="#22284F" d="M14.247 4.748a6.326 6.326 0 0 0-.788-.176 9.958 9.958 0 0 0-1.59-.117H7.056a.772.772 0 0 0-.76.654l-1.024 6.528-.03.19a.877.877 0 0 1 .866-.746H7.91c3.54 0 6.312-1.447 7.122-5.632.024-.124.044-.244.062-.362a4.293 4.293 0 0 0-.847-.34"/>
    <path fill="#27356A" d="M6.296 5.11a.77.77 0 0 1 .76-.654h4.814c.57 0 1.103.037 1.59.116a6.326 6.326 0 0 1 .97.233c.238.08.46.174.665.283.24-1.547-.002-2.6-.833-3.554-.916-1.05-2.57-1.5-4.686-1.5H3.433a.88.88 0 0 0-.868.747L.007 17.105a.53.53 0 0 0 .52.614H4.32l1.976-12.61"/>
  </g>
</svg>