<svg xmlns="http://www.w3.org/2000/svg" width="56" height="24">
  <g fill="#535353" fill-rule="evenodd">
    <path d="M22.7 12.8l-3 7.5-.2-1.5c-.6-2-2.2-3.8-4-4.6l2.6 9.6h3.2l4.5-11h-3zm2.4 11l2-11h2.7l-1.8 11h-3zM38.4 13a7 7 0 0 0-2.5-.4c-3 0-5 1.5-5 3.6 0 1.6 1.5 2.5 2.6 3 1 .6 1.5 1 1.5 1.4 0 .7-1 1-1.8 1a5.8 5.8 0 0 1-2.7-.5H30l-.3 2.4a8.7 8.7 0 0 0 3.2.6c3 0 5-1.5 5-3.8 0-1.3-.8-2.2-2.5-3-1-.5-1.6-1-1.6-1.4 0-.4.4-1 1.5-1a5 5 0 0 1 2.2.5h.2l.3-2.3zm7.4-.2h-2.2c-.7 0-1.2.2-1.5 1l-4.3 10h3l.6-1.6H45l.3 1.6H48l-2.3-11zm-3.6 7c.4-.5 1.3-3 1.3-3l.4-1 .2 1 .5 3H42z"/>
    <path d="M17.2 12.8h-4.6v.2c3.6 1 6 3 7 5.8l-1-5c-.2-.8-.7-1-1.4-1zM4 10H2L0 .8l2-.4 1.5 7.4L7 .4h2L4 10zm9.5-3H9c0 1.4.6 2 1.6 2s1.7-.4 2.5-1v1.4a5.3 5.3 0 0 1-2.8.8c-1.8 0-3-1-2.7-3.5.3-2.2 1.8-3.5 3.6-3.5 2.2 0 2.8 1.5 2.5 3.4V7zM11 4.4C10 4.4 9.5 5 9.2 6H12c0-1-.3-1.6-1-1.6zm5.3 1.8l-.6 4H14l1-7h1.5v1.5C17 4 17.8 3.2 19 3.2v1.6a3.8 3.8 0 0 0-2.7 1.4zm2.6 4l1-7h1.6l-1 7H19zm2-8a.8.8 0 0 1-.7-.3.8.8 0 0 1-.2-.7c.2-.6.7-1 1.3-1a.8.8 0 0 1 .6.3c0 .2.2.4 0 .7a1.2 1.2 0 0 1-1 1zm5.3-.7a1 1 0 0 0-.7.2 1 1 0 0 0-.3.6l-.2 1h1.4v1.4H25L24 10h-1.6l.8-5.3h-1l.3-1.4h1v-1C24 .6 25 0 26.4 0a4 4 0 0 1 .7.2v1.3a4.3 4.3 0 0 0-.7 0zm0 8.6l1-6.7h1.8L28 10h-1.7zm2-7.8a.8.8 0 0 1-.6-.3.8.8 0 0 1-.2-.7c0-.6.6-1 1.2-1a.8.8 0 0 1 .7.3l.2.7a1.2 1.2 0 0 1-1.2 1zM35.7 7h-4.4c0 1.4.5 2 1.6 2 1 0 1.6-.4 2.4-1v1.4a5.3 5.3 0 0 1-2.8.8c-2 0-3.2-1-2.8-3.5.4-2.2 2-3.5 3.7-3.5 2 0 2.7 1.5 2.4 3.4V7zM33 4.4c-.6 0-1.3.5-1.6 1.6H34c.2-1-.2-1.6-1-1.6zm7.6 5.7v-.8a3.2 3.2 0 0 1-2.3 1c-1.4 0-2.4-1-2-3.3.4-2.6 2-3.7 3.5-3.7a4.5 4.5 0 0 1 1.6.2L42 .3l1.6-.3L42 10h-1.4zm.6-5a2.5 2.5 0 0 0-1.3-.4c-1 0-1.8.7-2 2.2-.2 1.3.3 2 1 2 .6 0 1.2-.4 1.7-1l.5-3zm6 5.2a6 6 0 0 1-2-.4l1-7.2 1.4-.2-.5 3.2c.5-.4 1-.7 1.7-.7 1 0 1.8.7 1.5 2.4-.3 2-1.5 2.8-3 2.8zm1-4.2a2 2 0 0 0-1.3.7L46.5 9h.8c.8 0 1.3-.4 1.5-1.5 0-1-.3-1.5-.8-1.5zm5 4.4C52.6 11.6 52 12 51 12a1.6 1.6 0 0 1-.5 0v-1h.6c.5 0 .8-.2 1-.6l.2-.3-1-5h1.2l.7 3.5L54.8 5H56l-2.8 5.4z"/>
  </g>
</svg>
