<svg xmlns="http://www.w3.org/2000/svg" width="32" height="32">
  <path fill-rule="evenodd" d="M30.5 32h-28c-1 0-2-1-2-2V2c0-1 1-2 2-2h28c1 0 2 1 2 2v28c0 1-1 2-2 2zm-14-25.5h4.7l2.2.5c.5.2 1 .5 1.3 1 .4.3.7.6.8 1.2.2.4.4 1 .4 2.2v9.4l-.5 2.2c0 .5-.4.8-.8 1.2-.4.4-.8.7-1.3.8-.5.2-1 .4-2.2.4h-9.4c-1 0-1.8-.3-2.2-.4-.5 0-1-.4-1.3-.8-.4-.4-.7-.8-.8-1.3-.2-.6-.4-1.2-.4-2.3V16v-4.7L7.6 9c0-.4.4-.8.8-1.2.4-.4.8-.7 1.3-.8.5-.2 1-.4 2.2-.4h4.7zm0-2h-4.8c-1.2 0-2 .3-2.8.6-.8.4-1.5.8-2 1.4-.8.6-1 1.2-1.5 2C5.2 9 5 10 5 11.2c-.2 1.2-.2 1.6-.2 4.8 0 3 0 3.6.2 4.8 0 1.2.2 2 .5 2.8.3.7.7 1.4 1.3 2 .7.7 1.4 1 2 1.4.8.3 1.7.4 3 .5 1 .2 1.5.2 4.7.2s3.6 0 4.8-.2c1.2 0 2-.2 2.8-.5.8-.3 1.5-.7 2.2-1.3.6-.7 1-1.4 1.3-2 .3-.8.4-1.7.5-3 .2-1 .2-1.5.2-4.7 0-3 0-3.6-.2-4.8 0-1.2-.2-2-.5-2.8-.3-.7-.7-1.4-1.3-2-.7-.7-1.4-1-2-1.4-.8-.3-1.7-.4-3-.5h-4.7zm0 5.6c-3.3 0-6 2.7-6 6s2.7 6 6 6 6-2.7 6-6-2.7-6-6-6zm0 10c-2.2 0-4-1.8-4-4s1.8-4 4-4 4 1.8 4 4-1.8 4-4 4zm6.2-11.5c-.7 0-1.4.6-1.4 1.4 0 .6.7 1.3 1.4 1.3.8 0 1.5-.7 1.5-1.4 0-1-.7-1.5-1.5-1.5z"/>
</svg>
