<svg xmlns="http://www.w3.org/2000/svg" viewBox="0 0 64 64"><path d="M59.9 64H4.1C1.9 64 0 62.1 0 59.9V4.1C0 1.9 1.9 0 4.1 0H60c2.1 0 4 1.9 4 4.1V60c0 2.1-1.9 4-4.1 4zm-9-39.8s-.3-2.7-1.5-3.8c-1.5-1.5-3.1-1.5-3.8-1.6-5.4-.3-13.4-.3-13.4-.3s-8.1 0-13.6.3c-.8.1-2.4.1-3.8 1.6-1.2 1.2-1.5 3.8-1.5 3.8s-.3 3.1-.3 6.3v2.9c0 3.1.3 6.3.3 6.3s.3 2.7 1.5 3.8c1.5 1.5 3.4 1.5 4.3 1.6 3.1.3 13.1.3 13.1.3s8.1 0 13.6-.5c.8-.1 2.4-.1 3.8-1.6 1.2-1.2 1.5-3.8 1.5-3.8s.3-3.1.3-6.3v-2.9c-.2-2.9-.5-6.1-.5-6.1zM27.2 37.8V25.4l11.9 6.3-11.9 6.1z"/></svg>
