<svg xmlns="http://www.w3.org/2000/svg" width="32" height="32">
  <path fill-rule="evenodd" d="M29.8.2H2c-1 0-2 1-2 2V30c0 1 1 2 2 2h7.3c0-1.3 0-3.5.4-4.6l2.2-9s-.7-1-.7-2.6c0-2.4 1.4-4.3 3.2-4.3 1.4 0 2.2 1.2 2.2 2.4 0 1.4-1 3.7-1.5 5.7-.4 1.8 1 3.2 2.6 3.2 3 0 5.2-4 5.2-9 0-3.5-2.4-6-6.8-6-5 0-8 3.6-8 7.7C8 17 8.5 18 9 19c.3.4.5.4.3 1 0 .2-.2 1-.4 1.2 0 .4-.3.6-.7.4C6 20.6 5 18.2 5 15.4 5 10.7 9 5 16.6 5 23 5 27 9.8 27 14.7c0 6.4-3.5 11.2-8.8 11.2-1.8 0-3.5-1-4-2L13 28.2c-.3 1.2-1 2.7-1.6 3.6H30c1 0 2-1 2-2V2c-.2-1-1.2-2-2.2-2z"/>
</svg>
