<svg xmlns="http://www.w3.org/2000/svg" viewBox="0 0 640 480">
  <g stroke-width="1pt">
    <path fill="#229e45" fill-rule="evenodd" d="M0 0h640v480H0z"/>
    <path fill="#f8e509" fill-rule="evenodd" d="M321.406 435.935l301.483-195.67-303.31-196.2-302.47 196.67 304.296 195.2z"/>
    <path fill="#2b49a3" fill-rule="evenodd" d="M452.77 240.005c0 70.328-57.103 127.34-127.544 127.34-70.442 0-127.544-57.012-127.544-127.34s57.104-127.34 127.544-127.34c70.442 0 127.545 57.012 127.545 127.34z"/>
    <path fill="#ffffef" fill-rule="evenodd" d="M283.3 316.274L279.357 314l-4.093 2.025.917-4.55-3.16-3.332 4.52-.53 2.123-4.08 1.894 4.22 4.46.81-3.345 3.13m86.098 26.224l-3.94-2.274-4.092 2.025.916-4.55-3.16-3.332 4.52-.53 2.122-4.08 1.894 4.22 4.46.81-3.345 3.13m-36.215-29.993l-3.404-1.964-3.536 1.747.792-3.93-2.73-2.88 3.904-.457 1.834-3.523 1.636 3.645 3.853.7-2.89 2.705m86.864-8.477l-3.342-1.928-3.472 1.718.777-3.858-2.68-2.827 3.833-.45 1.8-3.46 1.607 3.58 3.783.686-2.837 2.658M330.37 265.03l-3.94-2.273-4.093 2.025.916-4.55-3.162-3.332 4.523-.53 2.123-4.08 1.894 4.22 4.46.81-3.346 3.13M225.13 225.52l-3.94-2.274-4.094 2.025.916-4.547-3.16-3.333 4.52-.53 2.122-4.08 1.894 4.22 4.46.81-3.345 3.13m13.283 57.14l-3.94-2.275-4.094 2.025.916-4.548-3.16-3.334 4.52-.53 2.123-4.08 1.895 4.22 4.46.81-3.345 3.132m131.954-67.33l-3.48-2.007-3.616 1.788.81-4.016-2.794-2.944 3.994-.47 1.875-3.603 1.673 3.728 3.94.715-2.955 2.766m-6.664 38.24l-2.74-1.582-2.85 1.408.64-3.164-2.2-2.32 3.145-.368 1.478-2.838 1.318 2.936 3.103.563-2.328 2.18m-142.2 50.423l-2.63-1.518-2.733 1.352.61-3.037-2.11-2.225 3.02-.354 1.415-2.722 1.264 2.818 2.977.54-2.233 2.09m200.14 15.164l-2.144-1.135-2.227 1.01.5-2.27-1.72-1.666 2.46-.266 1.154-2.038 1.03 2.108 2.426.404-1.82 1.563"/>
    <path fill="#ffffef" fill-rule="evenodd" d="M219.263 287.603l-2.63-1.518-2.734 1.352.61-3.037-2.11-2.225 3.02-.354 1.415-2.722 1.264 2.818 2.977.54-2.233 2.09m42.3 3.048l-2.63-1.52-2.734 1.353.61-3.037-2.11-2.225 3.02-.354 1.416-2.72 1.265 2.816 2.98.54-2.234 2.09m-4.786 16.99l-2.63-1.52-2.734 1.353.612-3.04-2.11-2.224 3.017-.354 1.417-2.724 1.265 2.817 2.977.54-2.233 2.09m87.382-22.3l-2.63-1.52-2.733 1.352.61-3.036-2.11-2.224 3.017-.353 1.417-2.724 1.265 2.816 2.976.54-2.233 2.09m-25.1 3.048l-2.63-1.518-2.733 1.352.612-3.037-2.11-2.224 3.018-.353 1.417-2.724 1.264 2.816 2.98.54-2.233 2.09m-68.8-5.838l-1.648-.952-1.715.847.384-1.902-1.324-1.393 1.89-.222.89-1.706.792 1.764 1.864.34-1.4 1.31m167.838 45.384l-2.63-1.518-2.733 1.35.612-3.035-2.11-2.226 3.016-.355 1.417-2.724 1.264 2.818 2.978.54-2.233 2.09m-20.832 5.844l-2.178-1.26-2.264 1.122.507-2.522-1.748-1.848 2.5-.294 1.174-2.262 1.05 2.34 2.465.45-1.85 1.735m10.37 2.297l-2.03-1.173-2.107 1.044.472-2.343-1.63-1.718 2.33-.275 1.093-2.103.976 2.177 2.295.416-1.723 1.615m29.11-22.76l-1.955-1.13-2.03 1.006.454-2.257-1.566-1.656 2.243-.262 1.053-2.024.94 2.092 2.21.402-1.658 1.553M394.24 327.69l-2.554-1.395-2.652 1.24.594-2.786-2.05-2.044 2.93-.325 1.376-2.5 1.227 2.587 2.89.496-2.166 1.92m.55 14.247l-2.33-1.395-2.42 1.24.543-2.786-1.87-2.045 2.673-.324 1.255-2.5 1.12 2.587 2.635.496-1.977 1.918m-18.93-23.054l-1.954-1.13-2.033 1.006.455-2.257-1.568-1.653 2.242-.263 1.054-2.026.94 2.093 2.213.402-1.66 1.553m-17.78 2.273l-1.955-1.13-2.03 1.006.454-2.257-1.57-1.653 2.244-.263 1.053-2.026.94 2.093 2.21.402-1.66 1.553m-30.407-24.59l-1.955-1.128-2.03 1.004.454-2.258-1.568-1.654 2.243-.264 1.053-2.024.94 2.094 2.212.402-1.66 1.553m3.734 57.023l-1.656-.956-1.72.85.386-1.91-1.33-1.4 1.9-.223.893-1.715.794 1.77 1.874.34-1.407 1.317m-46.13-86.63l-3.942-2.274-4.093 2.025.917-4.548-3.162-3.334 4.52-.53 2.124-4.08 1.894 4.22 4.46.81-3.345 3.132"/>
    <path fill="#fff" fill-rule="evenodd" d="M444.368 285.817c1.944-5.083 4.45-12.75 5.783-19.786-67.74-59.507-143.26-89.992-238.68-83.72-3.42 6.56-6.16 13.424-8.47 20.854 113.064-10.786 195.937 39.27 241.37 82.654z"/>
  </g>
</svg>
