<svg xmlns="http://www.w3.org/2000/svg" viewBox="0 0 640 480">
  <g stroke-width="1pt">
    <path fill="#229e45" fill-rule="evenodd" d="M0 0h640v480H0z"/>
    <path fill="#f8e509" fill-rule="evenodd" d="M321.406 435.935l301.483-195.67-303.31-196.2-302.47 196.67 304.296 195.2z"/>
    <path fill="#2b49a3" fill-rule="evenodd" d="M452.77 240.005c0 70.328-57.103 127.34-127.544 127.34-70.442 0-127.544-57.012-127.544-127.34s57.104-127.34 127.544-127.34c70.442 0 127.545 57.012 127.545 127.34z"/>
    <path fill="#fff" fill-rule="evenodd" d="M444.368 285.817c1.944-5.083 4.45-12.75 5.783-19.786-67.74-59.507-143.26-89.992-238.68-83.72-3.42 6.56-6.16 13.424-8.47 20.854 113.064-10.786 195.937 39.27 241.37 82.654z"/>
  </g>
</svg>
